# xmcd
#
# Track frame offsets:
#	150
#	18698
#	35095
#	49839
#	66551
#	82016
#	98926
#	113380
#	128658
#	147104
#	162809
#	181357
#	197754
#	212498
#	229210
#	244675
#	261585
#	276039
#	291317
#	309763
#
# Disc length: 4337 seconds
#
# Revision: 2
# Processed by: cddbd v1.5.2PL0 Copyright (c) Steve Scherf et al.
# Submitted via: audiograbber 1.83.01
#
DISCID=2710ef14
DTITLE=THC0708  - Top Hits Country (THC)
DYEAR=2007
DGENRE=Karaoke
TTITLE0=Urban, Keith - I Told You So (With Vocals)
TTITLE1=Walker, Clay - Fall (With Vocals)
TTITLE2=Ingram, Jack - Measure Of A Man (With Vocals)
TTITLE3=McBride, Martina - How I Feel (With Vocals)
TTITLE4=Van Zandt - That Scares Me (With Vocals)
TTITLE5=Wilson, Gretchen - One Of The Boys (With Vocals)
TTITLE6=Nichols, Joe - Another Side Of You (With Vocals)
TTITLE7=Holy, Steve - Men Buy The Drinks (Girls Call The Shots) (With Vocals)
TTITLE8=Tritt, Travis - You Never Take Me Dancing (With Vocals)
TTITLE9=Underwood, Carrie - I'll Stand By You (With Vocals)
TTITLE10=Keith Urban - I Told You So (THC)
TTITLE11=Clay Walker - Fall (THC)
TTITLE12=Jack Ingram - Measure Of A Man (THC)
TTITLE13=Martina McBride - How I Feel (THC)
TTITLE14=Van Zandt - That Scares Me (THC)
TTITLE15=Gretchen Wilson - One Of The Boys (THC)
TTITLE16=Joe Nichols - Another Side Of You (THC)
TTITLE17=Steve Holy  - Men Buy The Drinks (Girls Call The Shots) (THC)
TTITLE18=Travis Tritt (THC) - You Never Take Me Dancing
TTITLE19=Carrie Underwood - I'll Stand By You (THC)
EXTD=
EXTT0=
EXTT1=
EXTT2=
EXTT3=
EXTT4=
EXTT5=
EXTT6=
EXTT7=
EXTT8=
EXTT9=
EXTT10=
EXTT11=
EXTT12=
EXTT13=
EXTT14=
EXTT15=
EXTT16=
EXTT17=
EXTT18=
EXTT19=
PLAYORDER=
